<mxfile host="app.diagrams.net" modified="2020-09-14T05:24:46.452Z" agent="5.0 (Windows NT 10.0; Win64; x64) AppleWebKit/537.36 (KHTML, like Gecko) Chrome/85.0.4183.102 Safari/537.36 Edg/85.0.564.51" etag="O9vWWhsQFtyJcCTbztKd" version="13.6.10" type="github">
  <diagram id="fusSZfOTYnML9cZ_0kzL" name="Page-1">
    <mxGraphModel dx="1234" dy="469" grid="1" gridSize="10" guides="1" tooltips="1" connect="1" arrows="1" fold="1" page="1" pageScale="1" pageWidth="1100" pageHeight="850" math="0" shadow="0">
      <root>
        <mxCell id="0" />
        <mxCell id="1" parent="0" />
        <mxCell id="GRW9Pkt7vQIg1fpfe9rf-10" value="VPC Network ACLs" style="shape=mxgraph.ibm.box;prType=subnet;fontStyle=0;verticalAlign=top;align=left;spacingLeft=32;spacingTop=4;fillColor=#E6F0E2;rounded=0;whiteSpace=wrap;html=1;strokeColor=#00882B;strokeWidth=1;dashed=0;container=1;spacing=-4;collapsible=0;expand=0;recursiveResize=0;" vertex="1" parent="1">
          <mxGeometry x="240" y="120" width="600" height="320" as="geometry" />
        </mxCell>
        <mxCell id="GRW9Pkt7vQIg1fpfe9rf-1" value="database-sg" style="fillColor=none;strokeColor=#DD3522;verticalAlign=top;fontStyle=0;fontColor=#DD3522;" vertex="1" parent="1">
          <mxGeometry x="680" y="160" width="120" height="240" as="geometry" />
        </mxCell>
        <mxCell id="GRW9Pkt7vQIg1fpfe9rf-2" value="application-sg" style="fillColor=none;strokeColor=#DD3522;verticalAlign=top;fontStyle=0;fontColor=#DD3522;" vertex="1" parent="1">
          <mxGeometry x="480" y="160" width="120" height="240" as="geometry" />
        </mxCell>
        <mxCell id="GRW9Pkt7vQIg1fpfe9rf-3" value="load-balancer-sg" style="fillColor=none;strokeColor=#DD3522;verticalAlign=top;fontStyle=0;fontColor=#DD3522;" vertex="1" parent="1">
          <mxGeometry x="280" y="160" width="120" height="240" as="geometry" />
        </mxCell>
        <mxCell id="GRW9Pkt7vQIg1fpfe9rf-4" value="" style="outlineConnect=0;fontColor=#232F3E;gradientColor=none;fillColor=#5A30B5;strokeColor=none;dashed=0;verticalLabelPosition=bottom;verticalAlign=top;align=center;html=1;fontSize=12;fontStyle=0;aspect=fixed;pointerEvents=1;shape=mxgraph.aws4.application_load_balancer;" vertex="1" parent="1">
          <mxGeometry x="301" y="241" width="78" height="78" as="geometry" />
        </mxCell>
        <mxCell id="GRW9Pkt7vQIg1fpfe9rf-5" value="" style="outlineConnect=0;fontColor=#232F3E;gradientColor=none;fillColor=#D86613;strokeColor=none;dashed=0;verticalLabelPosition=bottom;verticalAlign=top;align=center;html=1;fontSize=12;fontStyle=0;aspect=fixed;pointerEvents=1;shape=mxgraph.aws4.instance2;" vertex="1" parent="1">
          <mxGeometry x="516" y="210" width="48" height="48" as="geometry" />
        </mxCell>
        <mxCell id="GRW9Pkt7vQIg1fpfe9rf-6" value="" style="outlineConnect=0;fontColor=#232F3E;gradientColor=none;fillColor=#D86613;strokeColor=none;dashed=0;verticalLabelPosition=bottom;verticalAlign=top;align=center;html=1;fontSize=12;fontStyle=0;aspect=fixed;pointerEvents=1;shape=mxgraph.aws4.instance2;" vertex="1" parent="1">
          <mxGeometry x="516" y="300" width="48" height="48" as="geometry" />
        </mxCell>
        <mxCell id="GRW9Pkt7vQIg1fpfe9rf-7" value="" style="outlineConnect=0;fontColor=#232F3E;gradientColor=none;fillColor=#3334B9;strokeColor=none;dashed=0;verticalLabelPosition=bottom;verticalAlign=top;align=center;html=1;fontSize=12;fontStyle=0;aspect=fixed;pointerEvents=1;shape=mxgraph.aws4.rds_oracle_instance;" vertex="1" parent="1">
          <mxGeometry x="700" y="230" width="78" height="78" as="geometry" />
        </mxCell>
        <mxCell id="GRW9Pkt7vQIg1fpfe9rf-8" value="" style="shape=flexArrow;endArrow=classic;html=1;" edge="1" parent="1">
          <mxGeometry width="50" height="50" relative="1" as="geometry">
            <mxPoint x="300" y="260" as="sourcePoint" />
            <mxPoint x="350" y="210" as="targetPoint" />
          </mxGeometry>
        </mxCell>
        <mxCell id="GRW9Pkt7vQIg1fpfe9rf-11" value="" style="shape=flexArrow;endArrow=classic;html=1;entryX=0.006;entryY=0.433;entryDx=0;entryDy=0;entryPerimeter=0;" edge="1" parent="1" target="GRW9Pkt7vQIg1fpfe9rf-10">
          <mxGeometry width="50" height="50" relative="1" as="geometry">
            <mxPoint x="180" y="260" as="sourcePoint" />
            <mxPoint x="230" y="210" as="targetPoint" />
          </mxGeometry>
        </mxCell>
      </root>
    </mxGraphModel>
  </diagram>
</mxfile>
